<?xml version="1.0" encoding="UTF-8"?>
<svg version="1.1" xmlns="http://www.w3.org/2000/svg" width="512" height="512">
<path d="M0 0 C1.01790619 0.00215515 2.03581238 0.0043103 3.08456421 0.00653076 C17.69363523 0.05620146 32.02575853 0.30709809 46.375 3.3125 C47.34985352 3.51117676 48.32470703 3.70985352 49.32910156 3.91455078 C97.7109774 14.03517194 141.69928269 35.9516877 177.375 70.3125 C178.3640332 71.26068604 178.3640332 71.26068604 179.37304688 72.22802734 C188.86130305 81.37247479 197.6012044 90.66984009 205.375 101.3125 C206.23306152 102.46355017 207.09113451 103.61459177 207.94921875 104.765625 C213.98736829 112.95680614 219.34595521 121.47054105 224.375 130.3125 C224.73948242 130.94430176 225.10396484 131.57610352 225.47949219 132.22705078 C247.08534998 169.97532572 256.85198095 212.74189997 256.6875 255.9375 C256.68534485 256.95540619 256.6831897 257.97331238 256.68096924 259.02206421 C256.63129854 273.63113523 256.38040191 287.96325853 253.375 302.3125 C253.07698486 303.77478027 253.07698486 303.77478027 252.77294922 305.26660156 C242.65232806 353.6484774 220.7358123 397.63678269 186.375 433.3125 C185.74287598 433.97185547 185.11075195 434.63121094 184.45947266 435.31054688 C175.31502521 444.79880305 166.01765991 453.5387044 155.375 461.3125 C154.22394983 462.17056152 153.07290823 463.02863451 151.921875 463.88671875 C143.73224019 469.92427396 135.22961724 475.30707302 126.375 480.3125 C125.66778809 480.7146875 124.96057617 481.116875 124.23193359 481.53125 C101.09654164 494.5566741 75.92537591 503.30551461 49.9375 508.625 C49.21860596 508.77235596 48.49971191 508.91971191 47.7590332 509.0715332 C33.08339502 511.86090125 18.55831162 512.66142619 3.64770508 512.62817383 C0.70811513 512.6250221 -2.2304558 512.64854926 -5.16992188 512.67382812 C-18.54306192 512.71848737 -31.43916711 511.51301542 -44.625 509.3125 C-46.33055054 509.03031616 -46.33055054 509.03031616 -48.07055664 508.74243164 C-91.33802759 500.97044532 -132.38793216 480.98345309 -165.625 452.3125 C-166.37007813 451.67828125 -167.11515625 451.0440625 -167.8828125 450.390625 C-181.38779833 438.57948485 -194.05918743 425.82889772 -204.625 411.3125 C-205.48149066 410.16255169 -206.33826433 409.01281411 -207.1953125 407.86328125 C-213.23534209 399.67315742 -218.61867614 391.16870382 -223.625 382.3125 C-224.0271875 381.60528809 -224.429375 380.89807617 -224.84375 380.16943359 C-237.8691741 357.03404164 -246.61801461 331.86287591 -251.9375 305.875 C-252.08485596 305.15610596 -252.23221191 304.43721191 -252.3840332 303.6965332 C-255.35789088 288.05024391 -255.99800362 272.57681954 -255.9375 256.6875 C-255.93534485 255.66959381 -255.9331897 254.65168762 -255.93096924 253.60293579 C-255.88129854 238.99386477 -255.63040191 224.66174147 -252.625 210.3125 C-252.42632324 209.33764648 -252.22764648 208.36279297 -252.02294922 207.35839844 C-241.90232806 158.9765226 -219.9858123 114.98821731 -185.625 79.3125 C-184.99287598 78.65314453 -184.36075195 77.99378906 -183.70947266 77.31445312 C-174.56502521 67.82619695 -165.26765991 59.0862956 -154.625 51.3125 C-153.47394983 50.45443848 -152.32290823 49.59636549 -151.171875 48.73828125 C-142.98224019 42.70072604 -134.47961724 37.31792698 -125.625 32.3125 C-124.91778809 31.9103125 -124.21057617 31.508125 -123.48193359 31.09375 C-100.34654164 18.0683259 -75.17537591 9.31948539 -49.1875 4 C-48.46860596 3.85264404 -47.74971191 3.70528809 -47.0090332 3.5534668 C-31.36274391 0.57960912 -15.88931954 -0.06050362 0 0 Z " fill="#FF4141" transform="translate(255.625,-0.3125)"/>
<path d="M0 0 C1.17111328 -0.00547852 2.34222656 -0.01095703 3.54882812 -0.01660156 C14.36202834 0.07123676 24.99095785 1.10865144 35.1875 4.875 C35.89076416 5.13039551 36.59402832 5.38579102 37.31860352 5.64892578 C49.65980685 10.31161447 61.08061533 16.49407814 70.9375 25.3125 C71.77667969 26.02148438 72.61585938 26.73046875 73.48046875 27.4609375 C92.82242263 44.14008079 105.81601775 68.94222673 108.9375 94.3125 C109.70376788 109.90489028 110.07986601 126.16925225 105.9375 141.3125 C105.67404785 142.27575195 105.4105957 143.23900391 105.13916016 144.23144531 C101.07912324 158.71554448 96.17270083 172.63143764 89.9375 186.3125 C89.6070166 187.05951172 89.2765332 187.80652344 88.93603516 188.57617188 C73.53344809 223.38646532 50.97591322 254.90841256 29.71801758 286.31762695 C27.83519853 289.10002857 25.95425277 291.88368467 24.07421875 294.66796875 C23.46569061 295.56812714 22.85716248 296.46828552 22.23019409 297.39572144 C19.33987901 301.68591643 16.48502479 305.99243804 13.70947266 310.35791016 C13.21042923 311.14184647 12.7113858 311.92578278 12.19721985 312.73347473 C11.27534415 314.18943042 10.35996584 315.64952992 9.45256042 317.11454773 C7.32064717 320.48729052 5.4898461 323.36970446 1.9375 325.3125 C-1.5 325.375 -1.5 325.375 -5.0625 324.3125 C-9.2555613 319.86124527 -12.36777563 314.84868198 -15.5625 309.65625 C-19.77522948 302.8992735 -24.06931718 296.20996843 -28.5 289.59375 C-29.03874756 288.7888916 -29.57749512 287.9840332 -30.13256836 287.15478516 C-31.77404747 284.70612133 -33.41782353 282.25901725 -35.0625 279.8125 C-63.50656564 237.50089731 -92.08418447 193.51591055 -104.0625 143.3125 C-104.54009766 141.45044922 -104.54009766 141.45044922 -105.02734375 139.55078125 C-107.16320036 129.81639329 -107.37612296 120.11455664 -107.4375 110.1875 C-107.44544586 109.5146698 -107.45339172 108.8418396 -107.46157837 108.14862061 C-107.69260676 82.66871339 -99.14237383 57.45259207 -82.0625 38.3125 C-81.39992187 37.508125 -80.73734375 36.70375 -80.0546875 35.875 C-66.7592508 20.17559135 -47.96367319 8.51488137 -28.0625 3.3125 C-27.12019531 3.01730469 -26.17789063 2.72210938 -25.20703125 2.41796875 C-16.83626611 0.14070469 -8.63522502 0.02943312 0 0 Z " fill="#FF4141" transform="translate(255.0625,93.6875)"/>
<path d="M0 0 C1.17111328 -0.00547852 2.34222656 -0.01095703 3.54882812 -0.01660156 C14.36202834 0.07123676 24.99095785 1.10865144 35.1875 4.875 C35.89076416 5.13039551 36.59402832 5.38579102 37.31860352 5.64892578 C49.65980685 10.31161447 61.08061533 16.49407814 70.9375 25.3125 C71.77667969 26.02148438 72.61585938 26.73046875 73.48046875 27.4609375 C92.82242263 44.14008079 105.81601775 68.94222673 108.9375 94.3125 C109.70376788 109.90489028 110.07986601 126.16925225 105.9375 141.3125 C105.67404785 142.27575195 105.4105957 143.23900391 105.13916016 144.23144531 C101.07912324 158.71554448 96.17270083 172.63143764 89.9375 186.3125 C89.6070166 187.05951172 89.2765332 187.80652344 88.93603516 188.57617188 C73.53344809 223.38646532 50.97591322 254.90841256 29.71801758 286.31762695 C27.83519853 289.10002857 25.95425277 291.88368467 24.07421875 294.66796875 C23.46569061 295.56812714 22.85716248 296.46828552 22.23019409 297.39572144 C19.33987901 301.68591643 16.48502479 305.99243804 13.70947266 310.35791016 C13.21042923 311.14184647 12.7113858 311.92578278 12.19721985 312.73347473 C11.27534415 314.18943042 10.35996584 315.64952992 9.45256042 317.11454773 C7.32064717 320.48729052 5.4898461 323.36970446 1.9375 325.3125 C-1.5 325.375 -1.5 325.375 -5.0625 324.3125 C-9.2555613 319.86124527 -12.36777563 314.84868198 -15.5625 309.65625 C-19.77522948 302.8992735 -24.06931718 296.20996843 -28.5 289.59375 C-29.03874756 288.7888916 -29.57749512 287.9840332 -30.13256836 287.15478516 C-31.77404747 284.70612133 -33.41782353 282.25901725 -35.0625 279.8125 C-63.50656564 237.50089731 -92.08418447 193.51591055 -104.0625 143.3125 C-104.54009766 141.45044922 -104.54009766 141.45044922 -105.02734375 139.55078125 C-107.16320036 129.81639329 -107.37612296 120.11455664 -107.4375 110.1875 C-107.44544586 109.5146698 -107.45339172 108.8418396 -107.46157837 108.14862061 C-107.69260676 82.66871339 -99.14237383 57.45259207 -82.0625 38.3125 C-81.39992187 37.508125 -80.73734375 36.70375 -80.0546875 35.875 C-66.7592508 20.17559135 -47.96367319 8.51488137 -28.0625 3.3125 C-27.12019531 3.01730469 -26.17789063 2.72210938 -25.20703125 2.41796875 C-16.83626611 0.14070469 -8.63522502 0.02943312 0 0 Z M-58.0625 38.3125 C-58.83722656 38.91320312 -59.61195313 39.51390625 -60.41015625 40.1328125 C-76.69151323 53.39910337 -87.70061983 75.0272645 -89.85522461 95.76025391 C-91.68555588 118.29768984 -88.83399643 140.10604804 -81.0625 161.3125 C-80.7948584 162.04549316 -80.5272168 162.77848633 -80.25146484 163.53369141 C-71.10104986 188.18452704 -58.81723319 210.98456165 -45.0625 233.3125 C-44.54751953 234.15409668 -44.03253906 234.99569336 -43.50195312 235.86279297 C-34.55279947 250.44966791 -24.92533411 264.60790514 -15.40039062 278.82177734 C-12.19580148 283.60460209 -9.00394058 288.3958956 -5.8125 293.1875 C-4.86986248 294.60160971 -3.92716332 296.01567833 -2.984375 297.4296875 C-2.35015625 298.38101562 -1.7159375 299.33234375 -1.0625 300.3125 C1.6394661 297.73125676 3.85012747 295.181933 5.89501953 292.05737305 C6.4430423 291.22517746 6.99106506 290.39298187 7.55569458 289.53556824 C8.13801849 288.64082291 8.72034241 287.74607758 9.3203125 286.82421875 C10.24177567 285.42113213 10.24177567 285.42113213 11.18185425 283.98970032 C13.1465721 280.99605711 15.10470539 277.99817438 17.0625 275 C18.99456021 272.05087505 20.92796042 269.10263155 22.86138916 266.15440369 C24.1226618 264.2305377 25.38320423 262.3061928 26.64300537 260.38136292 C30.22184913 254.91544551 33.82492018 249.46708865 37.4609375 244.0390625 C41.22051865 238.4204434 44.8878998 232.75379206 48.4375 227 C48.98301514 226.11610596 49.52853027 225.23221191 50.09057617 224.3215332 C58.43037032 210.70860113 66.07084974 196.72522296 72.9375 182.3125 C73.26991699 181.61721191 73.60233398 180.92192383 73.94482422 180.20556641 C88.39540227 149.67880675 99.54652832 112.59628293 87.95605469 79.28344727 C83.66748228 67.58795995 77.99839469 57.83453447 69.9375 48.3125 C69.47988281 47.70921875 69.02226562 47.1059375 68.55078125 46.484375 C59.98072874 35.46941261 47.39674202 28.92832862 34.9375 23.3125 C33.76832031 22.77882813 32.59914063 22.24515625 31.39453125 21.6953125 C1.30588515 9.65985406 -33.90497481 18.13935118 -58.0625 38.3125 Z " fill="#FFFCFC" transform="translate(255.0625,93.6875)"/>
<path d="M0 0 C11.09067027 10.72029538 16.95050386 23.79374228 17.35473633 39.1875 C17.50770733 55.22918186 12.51365872 68.11788799 1.5078125 79.83203125 C-6.88316683 87.91471581 -18.07821236 94.56332697 -29.9375 95.1875 C-30.86820312 95.23777344 -31.79890625 95.28804688 -32.7578125 95.33984375 C-48.38217177 95.81045698 -61.37315378 92.07862639 -73.25 81.8125 C-83.60523713 71.98157867 -90.53564401 59.77568986 -91.30859375 45.26953125 C-91.55596837 34.63542719 -91.10094134 25.75428217 -85.9375 16.1875 C-85.42960938 15.22585937 -84.92171875 14.26421875 -84.3984375 13.2734375 C-76.61180997 -0.12251413 -64.59235358 -7.54377703 -50.3671875 -12.75390625 C-32.97217379 -17.34336559 -13.52644232 -11.36405188 0 0 Z " fill="#FFFBFB" transform="translate(292.9375,163.8125)"/>
<path d="M0 0 C4.58328569 3.72686064 7.74764767 8.33136579 10.75 13.375 C11.11351562 13.97699219 11.47703125 14.57898438 11.8515625 15.19921875 C15.55547187 22.90127329 14.89443759 33.6912832 12.90625 41.828125 C9.18480841 51.63462648 2.39626217 59.96676191 -7.25 64.375 C-16.56406195 67.98091427 -26.95365633 69.24622361 -36.5 65.8125 C-47.20739289 60.85859257 -55.46086241 52.53916814 -59.5546875 41.41015625 C-62.16118886 30.03233852 -60.88431709 19.28230353 -55 9.2421875 C-50.13237208 1.96840259 -42.37651989 -3.78901918 -33.921875 -6.1875 C-21.76829567 -8.17755977 -10.38432555 -6.97573014 0 0 Z " fill="#FF4242" transform="translate(279.25,174.625)"/>
</svg>
